#!OML:ASF H:\Punching\Project 1\Capture day 1\Session 1\female.ASF
:FULLY-SPECIFIED
:DEGREES
1642
root -0.545305 15.1253 6.49403 14.4053 -9.16224 -0.0750465
lowerback -2.47647 3.79997 2.40786
upperback -7.17906 5.088 -0.680801
thorax -5.79667 2.38275 -2.16891
lowerneck -2.61808 6.05252 14.1405
upperneck 36.5833 9.61452 -7.92292
head 14.054 5.31687 -4.47562
rclavicle -1.54679e-015 8.15017e-015
rhumerus 3.63475 36.7083 -88.1548
rradius 134.475
rwrist -42.8787
rhand -21.6145 -8.73626
rfingers 7.12502
rthumb 4.78105 -38.6623
lclavicle -1.54679e-015 8.15017e-015
lhumerus 16.0062 -4.8531 55.281
lradius 113.713
lwrist 28.0916
lhand -10.7938 37.8117
lfingers 7.12502
lthumb 15.2192 67.2319
rfemur -44.7049 5.9902 8.54485
rtibia 40.4522
rfoot -9.37595 -2.71462
rtoes -6.18368
lfemur 16.9223 1.74198 -6.96688
ltibia 5.40694e-014
lfoot -4.82631 3.27656
ltoes -33.522
1643
root -0.545416 15.1112 6.52542 14.6529 -11.5898 -0.464032
lowerback -2.92012 3.5334 2.45095
upperback -7.30288 4.70696 -0.800126
thorax -5.68221 2.18533 -2.28366
lowerneck -1.99014 6.86753 15.2453
upperneck 36.7085 10.8841 -8.36658
head 14.3099 5.97314 -4.69113
rclavicle -1.82105e-014 -1.63997e-014
rhumerus 3.61719 37.6666 -88.0936
rradius 134.274
rwrist -43.0649
rhand -21.3676 -8.64186
rfingers 7.12502
rthumb 5.01943 -38.5624
lclavicle -1.82105e-014 -1.63997e-014
lhumerus 16.839 -3.58801 53.8017
lradius 109.87
lwrist 26.6698
lhand -11.9374 37.4296
lfingers 7.12502
lthumb 14.1174 66.93
rfemur -45.5267 6.66281 9.11394
rtibia 40.2889
rfoot -9.15985 -1.07896
rtoes -6.24745
lfemur 17.8272 4.11409 -6.90932
ltibia 8.5875e-014
lfoot -5.1208 2.53486
ltoes -33.0207
1644
root -0.550898 15.095 6.55664 14.8875 -13.8973 -0.900196
lowerback -3.34725 3.24059 2.50519
upperback -7.40487 4.29204 -0.88559
thorax -5.56027 1.97119 -2.37365
lowerneck -1.36935 7.65272 16.3148
upperneck 36.8164 12.1188 -8.77789
head 14.5804 6.61228 -4.8852
rclavicle -4.37093e-014 4.84538e-016
rhumerus 3.64377 38.5637 -87.9666
rradius 134.059
rwrist -43.1277
rhand -21.2119 -8.52274
rfingers 7.12502
rthumb 5.16975 -38.4397
lclavicle -4.37093e-014 4.84538e-016
lhumerus 17.8171 -2.36569 52.2914
lradius 105.476
lwrist 24.7098
lhand -13.0549 36.8448
lfingers 7.12502
lthumb 13.0402 66.4172
rfemur -46.263 7.39627 9.73924
rtibia 40.1801
rfoot -8.94751 0.422804
rtoes -6.13537
lfemur 18.7439 6.36169 -6.74436
ltibia 5.08889e-014
lfoot -5.37458 1.8254
ltoes -32.4675
1645
root -0.561938 15.0768 6.58651 15.0948 -16.0825 -1.37016
lowerback -3.73834 2.92188 2.53973
upperback -7.4756 3.8445 -0.931488
thorax -5.43371 1.74294 -2.41694
lowerneck -0.766704 8.4075 17.3363
upperneck 36.8986 13.3186 -9.16507
head 14.8599 7.23098 -5.05766
rclavicle -8.64123e-014 7.45443e-015
rhumerus 3.72774 39.4195 -87.779
rradius 133.802
rwrist -43.0137
rhand -21.1656 -8.40391
rfingers 7.12502
rthumb 5.21449 -38.3198
lclavicle -8.64123e-014 7.45443e-015
lhumerus 18.9639 -1.18239 50.7562
lradius 100.445
lwrist 22.0913
lhand -14.0483 36.1056
lfingers 7.12502
lthumb 12.0825 65.7368
rfemur -46.9086 8.23508 10.3829
rtibia 40.1365
rfoot -8.73161 1.72797
rtoes -5.88392
lfemur 19.6841 8.47514 -6.48111
ltibia 3.18055e-015
lfoot -5.57694 1.14268
ltoes -31.8856
1646
root -0.578111 15.0563 6.61357 15.2635 -18.1552 -1.83439
lowerback -4.07325 2.58773 2.50561
upperback -7.51181 3.37901 -0.95334
thorax -5.30982 1.51016 -2.40313
lowerneck -0.218833 9.12618 18.3092
upperneck 36.9584 14.4664 -9.52508
head 15.1511 7.82065 -5.20776
rclavicle 2.1506e-014 5.96354e-015
rhumerus 3.89896 40.2123 -87.5176
rradius 133.491
rwrist -42.7089
rhand -21.1866 -8.32013
rfingers 7.12502
rthumb 5.19416 -38.2365
lclavicle 2.1506e-014 5.96354e-015
lhumerus 20.3133 -0.0392142 49.2122
lradius 94.6911
lwrist 18.6679
lhand -14.812 35.2682
lfingers 7.12502
lthumb 11.3461 64.9413
rfemur -47.4792 9.18225 10.9899
rtibia 40.1714
rfoot -8.51906 2.81952
rtoes -5.54915
lfemur 20.6454 10.454 -6.16067
ltibia 9.54166e-015
lfoot -5.72455 0.479144
ltoes -31.3185
1647
root -0.598636 15.0337 6.63693 15.3747 -20.1147 -2.26346
lowerback -4.33901 2.24519 2.37773
upperback -7.50895 2.90607 -0.963069
thorax -5.1887 1.27924 -2.33007
lowerneck 0.257784 9.80164 19.225
upperneck 36.9954 15.5458 -9.85494
head 15.4482 8.37254 -5.33438
rclavicle 2.98798e-014 4.77083e-015
rhumerus 4.17376 40.9245 -87.1816
rradius 133.122
rwrist -42.2306
rhand -21.2087 -8.25001
rfingers 7.12502
rthumb 5.17281 -38.1669
lclavicle 2.98798e-014 4.77083e-015
lhumerus 21.8979 1.08414 47.6895
lradius 88.1385
lwrist 14.314
lhand -15.1969 34.4816
lfingers 7.12502
lthumb 10.9749 64.1747
rfemur -47.9791 10.2202 11.5251
rtibia 40.2943
rfoot -8.32466 3.70587
rtoes -5.13891
lfemur 21.63 12.2892 -5.81084
ltibia -1.27222e-014
lfoot -5.81883 -0.17557
ltoes -30.807
1648
root -0.622376 15.009 6.65613 15.41 -21.9549 -2.61791
lowerback -4.53231 1.895 2.13605
upperback -7.47443 2.42731 -0.97278
thorax -5.07764 1.05147 -2.1983
lowerneck 0.699646 10.4245 20.072
upperneck 36.9884 16.5476 -10.1608
head 15.7243 8.88163 -5.44167
rclavicle 3.93594e-014 2.5842e-014
rhumerus 4.52509 41.5589 -86.7932
rradius 132.711
rwrist -41.6186
rhand -21.2061 -8.173
rfingers 7.12502
rthumb 5.17535 -38.0898
lclavicle 3.93594e-014 2.5842e-014
lhumerus 23.7003 2.24207 46.2467
lradius 80.8031
lwrist 8.98731
lhand -15.095 33.8605
lfingers 7.12502
lthumb 11.0731 63.5484
rfemur -48.4137 11.292 11.9608
rtibia 40.5139
rfoot -8.1727 4.43039
rtoes -4.71372
lfemur 22.6271 13.9681 -5.47188
ltibia -9.54166e-015
lfoot -5.86796 -0.829557
ltoes -30.3922
